<svg xmlns="http://www.w3.org/2000/svg" viewBox="0 0 41.66 47" fill="#d010c5"><path d="M19.76,22.43a1.07,1.07,0,0,0,2.14,0A5.32,5.32,0,0,1,23.15,19a21.94,21.94,0,0,0,4-6.85,1.07,1.07,0,0,0-1-1.42H15.53a1.07,1.07,0,0,0-1,1.42,22,22,0,0,0,4,6.85A5.32,5.32,0,0,1,19.76,22.43Z"/><path d="M21.9,26.71a1.07,1.07,0,0,0-2.14,0A5.56,5.56,0,0,1,17.17,31a28.06,28.06,0,0,0-8,8.52,1.07,1.07,0,0,0,.93,1.59H31.51a1.07,1.07,0,0,0,.93-1.59,28.05,28.05,0,0,0-8-8.52A5.56,5.56,0,0,1,21.9,26.71Z"/><path d="M39.52,42.73h-.64C38.15,34.42,33.28,28,29.5,23.5,33.28,19,38.15,12.59,38.88,4.27h.64a2.14,2.14,0,0,0,0-4.27H2.14a2.14,2.14,0,0,0,0,4.27h.64c.74,8.31,5.6,14.7,9.39,19.23C8.38,28,3.51,34.42,2.77,42.73H2.14a2.14,2.14,0,0,0,0,4.27H39.52a2.14,2.14,0,1,0,0-4.27Zm-32.46,0c.8-7.51,5.69-13.3,9.34-17.62l.19-.23a2.13,2.13,0,0,0,0-2.75l-.19-.23C12.74,17.57,7.86,11.79,7.06,4.28H34.6c-.8,7.51-5.69,13.3-9.34,17.62l-.19.23a2.13,2.13,0,0,0,0,2.76l.19.23c3.65,4.32,8.53,10.11,9.33,17.62Z"/></svg>