<svg xmlns="http://www.w3.org/2000/svg" viewBox="0 0 423.58 422.73" fill="#d010c5"><path d="M300,211.36a88.35,88.35,0,0,1-75,87.22v48.92c69.25-6.67,123.58-65.18,123.58-136.15S294.25,81.88,225,75.22v48.92A88.35,88.35,0,0,1,300,211.36Z"/><path d="M75,211.36c0,71,54.33,129.48,123.58,136.15V298.59a88.22,88.22,0,0,1,0-174.45V75.21C129.33,81.88,75,140.39,75,211.36Z"/><path d="M273.58,211.36A61.89,61.89,0,0,0,225,151V271.72A61.89,61.89,0,0,0,273.58,211.36Z"/><path d="M150,211.36a61.89,61.89,0,0,0,48.58,60.35V151A61.89,61.89,0,0,0,150,211.36Z"/><path d="M48.58,211.36c0-85.55,66.16-155.93,150-162.68V0C87.93,6.84,0,99,0,211.36S87.93,415.88,198.58,422.73V374C114.74,367.29,48.58,296.91,48.58,211.36Z"/><path d="M423.58,211.36C423.58,99,335.65,6.84,225,0V48.69c83.84,6.75,150,77.13,150,162.68S308.84,367.29,225,374v48.69C335.65,415.88,423.58,323.7,423.58,211.36Z"/></svg>