<svg xmlns="http://www.w3.org/2000/svg" viewBox="0 0 338.84 257.31" fill="#fff"><path d="M31.3,126.35a7.46,7.46,0,0,1-1.19-.1C19.86,124.61,12,120,6.75,112.61-2.54,99.49.42,82.42.55,81.7a7.5,7.5,0,0,1,2.81-4.61C41.14,48,97.4,20.46,146.7,6.9A188.56,188.56,0,0,1,196.64,0c45,0,80.7,17.34,102.76,31.89s35,29,37.32,31.68a7.5,7.5,0,0,1-5.34,12.72A7.72,7.72,0,0,1,327,74.95C311.41,64.07,263.22,52.42,216.4,52.42a234.72,234.72,0,0,0-45.32,4.08c-39.27,7.78-134.81,68.09-135.77,68.69A7.53,7.53,0,0,1,31.3,126.35ZM15,87c-.22,3.92,0,11.37,4,17,2.45,3.42,6,5.69,10.81,6.91,16-10,99.63-61.46,138.32-69.13a249.68,249.68,0,0,1,48.23-4.36,333.48,333.48,0,0,1,78.23,9.34q-1.9-1.31-3.91-2.63C270.45,30.84,237.68,15,196.64,15a173.6,173.6,0,0,0-46,6.37C104.2,34.14,51.36,59.77,15,87Z"/><path d="M297.13,140.8a7.5,7.5,0,0,0-9.1,3.29c-8.73,15.16-15.48,22.53-21.87,23.9a15.79,15.79,0,0,1-9.08-1.17c3.5-6.88,5.47-15,5.87-24.39a7.5,7.5,0,1,0-15-.64A45.22,45.22,0,0,1,244.21,159a151.55,151.55,0,0,0-18.35-11.2A54.94,54.94,0,0,0,230,128.4a7.5,7.5,0,0,0-15-.64,40.24,40.24,0,0,1-2.81,13.69,168.21,168.21,0,0,0-23.47-7.64A54.15,54.15,0,0,0,191.06,120a7.5,7.5,0,1,0-15-.64,37.08,37.08,0,0,1-2.23,11.45,175.23,175.23,0,0,0-39.44-1.5C59.54,134.85,36.85,173,24.56,209.54v0l0,.08h0a7.5,7.5,0,0,0,1.07,6.83c1.23,1.67,30.8,40.83,96.82,40.83h0c4.54,0,9.21-.19,13.88-.57,68.57-5.53,93.51-33,101.75-46.61,10,3.65,19.41,3.38,28.19-.81,26.53-12.69,35.3-58.17,35.66-60.1A7.49,7.49,0,0,0,297.13,140.8Zm-115.31,6.78a153.33,153.33,0,0,1,20.8,6.19c-11.24,8.28-26.78,8.21-29.79,8.11-1.76-.46-3.51-.89-5.26-1.29A51.19,51.19,0,0,0,181.81,147.58ZM133.2,241.94a35,35,0,1,1,35-35A35,35,0,0,1,133.2,241.94Zm2.3-97.63a162,162,0,0,1,28.48.39c-10.66,9-25.66,11.68-33.47,12.46q-3,.12-5.85.37h0c-28.64,2.45-52.8,13.71-71.92,27C66.51,163.83,89.92,147.66,135.5,144.31ZM90.6,181a49.73,49.73,0,0,0,4.95,58.78C66.72,234,49.47,219.93,42,212.44,54.43,200.9,70.78,188.86,90.6,181Zm122,35.43c-7.53,6.13-19.54,13.29-38.07,18.59a49.83,49.83,0,0,0-.91-57.28c16.92,5,34.07,13.41,51.32,25.1A56.24,56.24,0,0,1,212.61,216.38Zm-2-39.67q-5-2.59-9.9-4.84a49.25,49.25,0,0,0,14.09-8.66c1-.9,2-1.85,2.87-2.82a138.56,138.56,0,0,1,16.91,10.11C225.51,176.7,214.27,176.85,210.58,176.71Zm49.18,19.08c-6.26,3-13.24,2.37-21.32-1.89q-3.74-2.66-7.47-5.12A46.36,46.36,0,0,0,246.75,180c.37-.31.71-.65,1.07-1,7.73,3.84,14.83,5,21.51,3.59a27.08,27.08,0,0,0,4.91-1.56C270.3,187.56,265.48,193,259.77,195.79Z"/><path d="M133.2,231.25A24.27,24.27,0,1,1,157.47,207,24.3,24.3,0,0,1,133.2,231.25Zm0-33.54a9.27,9.27,0,1,0,9.27,9.27A9.28,9.28,0,0,0,133.2,197.71Z"/></svg>